<?xml version="1.0" encoding="UTF-8"?>
<svg version="1.1" xmlns="http://www.w3.org/2000/svg" width="1500" height="980">
<path d="M0 0 C0.91754778 -0.00205263 1.83509556 -0.00410527 2.78044781 -0.0062201 C5.85371191 -0.0118726 8.92693095 -0.01043501 12.00019932 -0.00901413 C14.2265055 -0.01159877 16.45281123 -0.01461221 18.67911631 -0.01801753 C24.79647482 -0.02607921 30.9138216 -0.02787664 37.03118479 -0.028615 C42.95156041 -0.03027679 48.87193064 -0.03659588 54.79230296 -0.04269341 C70.65014016 -0.05873632 86.50797638 -0.06465488 102.36582024 -0.06944216 C109.87164325 -0.07177996 117.3774655 -0.07538282 124.88328791 -0.07913754 C150.58994871 -0.09197192 176.29660908 -0.10269089 202.00327301 -0.10614014 C203.61632368 -0.10636177 205.22937435 -0.10658355 206.84242502 -0.10680549 C208.45931316 -0.10702613 210.07620129 -0.10724661 211.69308943 -0.10746694 C214.93669983 -0.10790948 218.18031023 -0.1083566 221.42392063 -0.10880661 C222.22814453 -0.108916 223.03236844 -0.10902539 223.86096276 -0.1091381 C249.92816385 -0.11276738 275.9953371 -0.12868315 302.06252753 -0.15199697 C329.63939845 -0.1766158 357.21625347 -0.19031394 384.7931357 -0.19150805 C387.82283565 -0.1916795 390.85253559 -0.19189493 393.88223553 -0.19214249 C394.62820174 -0.19219826 395.37416796 -0.19225402 396.14273921 -0.19231148 C408.12636364 -0.19346018 420.10995942 -0.20446674 432.09357418 -0.21902954 C444.1485747 -0.23342529 456.20353864 -0.2366142 468.25854539 -0.22858956 C474.78411962 -0.22453725 481.30961699 -0.2255875 487.83518124 -0.23964691 C493.81699129 -0.25241661 499.79863345 -0.25116127 505.78044338 -0.2390562 C507.93661788 -0.23710452 510.0928044 -0.24015296 512.24896204 -0.24890056 C544.79457199 -0.37250728 571.79356113 8.02669209 595.61410618 31.13142776 C615.61981117 51.06344691 623.75216049 78.30367664 623.87865125 105.90038515 C623.8817103 108.94199103 623.87496634 111.98349084 623.86807346 115.02508926 C623.87038028 117.24547492 623.87355829 119.46585981 623.87752795 121.68624312 C623.88585418 127.76391059 623.88176053 133.841515 623.87555552 139.91918266 C623.87148914 145.80812614 623.8768298 151.69705639 623.88185025 157.58599804 C623.89236247 170.36834004 623.89147659 183.15066201 623.88569242 195.9330059 C623.88065527 207.11987684 623.87935072 218.30674045 623.88173771 229.49361229 C623.88196686 230.6080061 623.88196686 230.6080061 623.88220065 231.74491291 C623.88282336 234.76094611 623.88346016 237.77697931 623.88412018 240.7930125 C623.89023422 269.06929701 623.88469764 297.34556879 623.87392638 325.62185134 C623.8644366 350.72490382 623.86528407 375.82793601 623.87484837 400.93098831 C623.88556591 429.15505315 623.88979959 457.37910673 623.88362384 485.60317332 C623.88298244 488.6139247 623.88235675 491.62467609 623.88173771 494.63542747 C623.88157955 495.37671401 623.8814214 496.11800054 623.88125845 496.8817503 C623.87898683 508.05888625 623.88163788 519.23601406 623.88669682 530.41314888 C623.89242283 543.12725049 623.89096975 555.84132898 623.88013533 568.55542772 C623.8748858 575.04014455 623.87280966 581.52482024 623.87943363 588.00953674 C623.88541005 593.95025373 623.88209 599.8908916 623.87147853 605.83160145 C623.86925167 607.97613069 623.87036466 610.12066667 623.8752301 612.26519155 C623.93426036 640.45484547 618.82031126 665.78270184 600.61410618 688.13142776 C599.95023899 688.95900589 599.2863718 689.78658401 598.60238743 690.63924026 C581.65012874 710.6309982 557.21945343 722.43447248 531.28198358 724.92661641 C527.20192832 725.23983982 523.14214561 725.27019522 519.05182362 725.26006222 C517.68335504 725.26269177 517.68335504 725.26269177 516.28724062 725.26537445 C513.24385695 725.27000982 510.20052157 725.26757533 507.15713596 725.26514053 C504.94758972 725.26700974 502.7380438 725.26931089 500.52849841 725.27200586 C494.46687317 725.27811659 488.40526174 725.27799112 482.34363413 725.27681148 C476.47439944 725.27662827 470.60516949 725.28112111 464.73593665 725.28542437 C451.25199858 725.29508474 437.76806433 725.29790812 424.28412321 725.29848143 C413.86972062 725.29894133 403.45531951 725.30100155 393.0409174 725.30418205 C390.04092558 725.30507962 387.04093377 725.30596944 384.04094195 725.30685693 C383.2950932 725.30707798 382.54924445 725.30729903 381.78079421 725.30752677 C360.80752868 725.31367913 339.83426367 725.31762752 318.8609972 725.31718349 C318.07059732 725.31716792 317.28019744 725.31715234 316.46584604 725.31713629 C312.45995537 725.31705318 308.4540647 725.31695414 304.44817403 725.31685158 C303.65261853 725.31683163 302.85706303 725.31681169 302.03739979 725.31679114 C300.42859356 725.3167507 298.81978734 725.3167089 297.21098111 725.31666575 C272.18226439 725.31605303 247.15356121 725.32355958 222.12484837 725.33723831 C193.99199934 725.35260726 165.85915921 725.36120406 137.72630572 725.36027509 C134.72505649 725.36020046 131.72380726 725.36015175 128.72255802 725.36012077 C127.98359829 725.36010912 127.24463856 725.36009746 126.48328611 725.36008546 C114.60518777 725.36005472 102.72710122 725.36643332 90.84900638 725.37505304 C78.90632744 725.38354024 66.96366569 725.3845111 55.02098539 725.37794372 C48.55451508 725.37467853 42.08808739 725.37462188 35.62162113 725.38329697 C29.69744091 725.39116273 23.77333709 725.38972966 17.84915873 725.38101283 C15.71059518 725.37947804 13.57202592 725.38129323 11.43346909 725.38687291 C-16.73775015 725.45548268 -42.05412372 720.32381992 -64.38589382 702.13142776 C-65.21347195 701.46756058 -66.04105007 700.80369339 -66.89370632 700.11970901 C-87.07694105 683.00508521 -98.99608576 658.34844183 -101.38589382 632.13142776 C-101.75591281 624.83804734 -101.66069814 617.52706746 -101.64659023 610.2267189 C-101.64961393 608.00505895 -101.6535045 605.78340004 -101.6581828 603.56174296 C-101.66844352 597.48039924 -101.66628586 591.3991146 -101.66200221 585.31776607 C-101.65978551 579.42509604 -101.66695232 573.53244201 -101.67376246 567.63977659 C-101.68897481 554.10560382 -101.69071034 540.57144981 -101.68823943 527.03727029 C-101.68640416 516.58244967 -101.68817129 506.12763517 -101.69246387 495.67281532 C-101.69306629 494.16881398 -101.69366748 492.66481264 -101.69426748 491.1608113 C-101.69517477 488.89418992 -101.69608344 486.62756854 -101.69699983 484.36094717 C-101.70542537 463.29587084 -101.70976786 442.23079681 -101.70559311 421.16571903 C-101.70543673 420.37216949 -101.70528036 419.57861995 -101.70511924 418.76102346 C-101.70431351 414.73934746 -101.70346773 410.71767147 -101.70260594 406.69599549 C-101.70243485 405.89733298 -101.70226376 405.09867047 -101.70208749 404.27580606 C-101.70174084 402.66071731 -101.70139231 401.04562855 -101.70104191 399.43053979 C-101.69568632 374.30730302 -101.70361214 349.18410135 -101.72207546 324.06087112 C-101.74281398 295.80893256 -101.75351458 267.55701575 -101.74949998 239.30506915 C-101.74910466 236.28975245 -101.7487431 233.27443574 -101.7484026 230.25911903 C-101.74831186 229.51671904 -101.74822113 228.77431905 -101.74812765 228.00942209 C-101.74696401 216.82554648 -101.7535922 205.64169291 -101.76421452 194.4578228 C-101.77629095 181.73028717 -101.77779747 169.00279991 -101.76542435 156.27526353 C-101.75954352 149.78598079 -101.7584143 143.2967925 -101.77042675 136.8075161 C-101.78131184 130.85792288 -101.77815088 124.90850267 -101.76416507 118.95891746 C-101.76152536 116.81566223 -101.76386161 114.67239332 -101.77190093 112.52915154 C-101.88073865 81.32829893 -94.96166687 54.41805506 -73.38589382 31.13142776 C-72.68335476 30.35927933 -71.9808157 29.58713089 -71.25698757 28.79158401 C-66.48733189 23.77140097 -61.18515716 19.88807155 -55.38589382 16.13142776 C-54.61632351 15.61709183 -53.8467532 15.10275589 -53.05386257 14.57283401 C-37.12664434 4.40371458 -18.76557508 -0.03943251 0 0 Z " fill="#96AF00" transform="translate(127.38589382171631,125.86857223510742)"/>
<path d="M0 0 C1.50923035 0.00140488 1.50923035 0.00140488 3.0489502 0.00283813 C18.22778075 0.03347591 33.2353229 0.2676122 48.3125 2.1875 C49.54726074 2.34347656 50.78202148 2.49945313 52.05419922 2.66015625 C79.73252157 6.23767554 106.94317311 11.90232639 133.3125 21.1875 C134.28912598 21.53039062 135.26575195 21.87328125 136.27197266 22.2265625 C168.42291177 33.63611868 197.88386762 49.192751 223.3125 72.1875 C224.27671875 73.03441406 225.2409375 73.88132812 226.234375 74.75390625 C227.26304687 75.95853516 227.26304687 75.95853516 228.3125 77.1875 C227.94972288 80.26788835 226.68864694 82.44168814 224.99707031 84.99829102 C224.50901917 85.74177795 224.02096802 86.48526489 223.51812744 87.25128174 C222.71251373 88.45914337 222.71251373 88.45914337 221.890625 89.69140625 C221.32728455 90.54539001 220.76394409 91.39937378 220.18353271 92.27923584 C218.31571651 95.10675135 216.43935817 97.92847979 214.5625 100.75 C213.25103502 102.72988497 211.939841 104.70994946 210.62890625 106.69018555 C197.53525818 126.44418123 184.28301738 146.09149467 170.98980713 165.71154785 C168.79074174 168.95769197 166.59312434 172.20481512 164.39547729 175.45191956 C159.03863574 183.36659651 153.67770325 191.27848886 148.3125 199.1875 C144.54228576 197.43936098 142.34952501 195.30087394 139.5 192.25 C128.79151592 181.2176817 115.90655252 173.19737028 102.3125 166.1875 C101.58047363 165.80851563 100.84844727 165.42953125 100.09423828 165.0390625 C77.38179093 153.4321012 52.64974282 146.19717249 27.3125 143.1875 C26.44109375 143.07664062 25.5696875 142.96578125 24.671875 142.8515625 C-2.23314196 140.00731785 -32.82759735 141.14425507 -55.6875 157.1875 C-61.48577332 161.91435325 -66.22852569 167.67446408 -67.6875 175.1875 C-68.34521287 182.73502479 -68.22370727 188.93754197 -63.6875 195.1875 C-59.27020594 199.71307217 -54.41261752 202.66984646 -48.6796875 205.234375 C-47.9358078 205.57442566 -47.1919281 205.91447632 -46.42550659 206.26483154 C-39.36979891 209.4335586 -32.16676362 212.04981501 -24.8125 214.4375 C-24.10059509 214.67273376 -23.38869019 214.90796753 -22.6552124 215.15032959 C-3.05780258 221.61905616 16.77680787 227.37905854 36.5774374 233.18985176 C50.94955195 237.40869555 65.2729909 241.72910672 79.48828125 246.453125 C80.67142914 246.84476837 81.85457703 247.23641174 83.07357788 247.6399231 C95.72755633 251.89529986 108.05976765 256.89121125 120.3125 262.1875 C121.12992676 262.54021973 121.94735352 262.89293945 122.78955078 263.25634766 C146.68081164 273.70325472 169.07552632 287.56444575 188.3125 305.1875 C189.76269531 306.51201172 189.76269531 306.51201172 191.2421875 307.86328125 C218.22540923 333.6616873 231.47576941 369.82083105 232.53515625 406.67578125 C233.46931794 459.27346316 216.62407454 505.05759168 180.3125 543.1875 C179.33216797 544.24710938 179.33216797 544.24710938 178.33203125 545.328125 C144.37194951 580.95362653 92.88573042 599.71015854 45.3125 607.1875 C43.95439209 607.41397217 43.95439209 607.41397217 42.56884766 607.64501953 C6.34945227 613.43687386 -33.44682211 612.55086917 -69.6875 607.1875 C-70.87053711 607.01589355 -72.05357422 606.84428711 -73.27246094 606.66748047 C-100.64554028 602.57796434 -127.55808201 596.33088346 -153.6875 587.1875 C-155.18289307 586.66567139 -155.18289307 586.66567139 -156.70849609 586.13330078 C-187.57386577 575.23641393 -216.47064799 560.8980765 -242.6875 541.1875 C-243.36119629 540.68524902 -244.03489258 540.18299805 -244.72900391 539.66552734 C-246.70438954 538.18552438 -248.66746605 536.69101384 -250.625 535.1875 C-251.21104004 534.74253174 -251.79708008 534.29756348 -252.40087891 533.83911133 C-257.61480276 529.74670547 -257.61480276 529.74670547 -258.6875 526.1875 C-257.66796875 523.69580078 -257.66796875 523.69580078 -255.875 520.8828125 C-255.21878662 519.83593262 -254.56257324 518.78905273 -253.88647461 517.71044922 C-253.15379075 516.57760043 -252.42079113 515.4449558 -251.6875 514.3125 C-250.94331273 513.13778627 -250.20057092 511.96215568 -249.45922852 510.78564453 C-247.57408247 507.80190626 -245.6709599 504.8301308 -243.76202393 501.86157227 C-242.17417936 499.38776365 -240.60079847 496.90485372 -239.02734375 494.421875 C-236.7516275 490.8341304 -234.46829855 487.25140622 -232.1796875 483.671875 C-226.58365012 474.90380289 -221.09477827 466.06833371 -215.59179688 457.24169922 C-212.39708414 452.11787149 -209.19913153 446.99606974 -206 441.875 C-205.38084717 440.88387207 -204.76169434 439.89274414 -204.1237793 438.87158203 C-199.19823901 430.99254113 -194.24316727 423.13247507 -189.2734375 415.28125 C-186.72917109 411.25972974 -184.20524111 407.22566868 -181.6875 403.1875 C-178.32519176 404.77243232 -176.29219334 406.45500812 -173.75 409.1875 C-142.3504689 441.09676374 -93.84877816 457.50263747 -50.6875 465.1875 C-49.22352783 465.44998535 -49.22352783 465.44998535 -47.72998047 465.71777344 C-14.73977893 471.34712021 27.68589537 472.52139099 56.39453125 452.75390625 C62.03362103 448.37322388 64.82946961 443.87113178 65.76171875 436.76171875 C66.22773637 426.62324654 64.08067394 419.15654737 57.73046875 411.20703125 C36.10114332 389.8706538 -3.84132034 384.69205913 -32.08811569 377.19585037 C-54.24082091 371.31656864 -76.15786687 365.09437308 -97.6875 357.1875 C-98.69490234 356.81866699 -99.70230469 356.44983398 -100.74023438 356.06982422 C-132.03223755 344.44692464 -159.8484188 328.48183918 -184.6875 306.1875 C-185.36167969 305.58679688 -186.03585937 304.98609375 -186.73046875 304.3671875 C-215.7985079 276.88718849 -231.62839078 234.81828842 -232.9765625 195.51171875 C-233.85979421 150.22191777 -218.84056422 108.95935394 -188.6875 75.1875 C-188.22698242 74.66526855 -187.76646484 74.14303711 -187.29199219 73.60498047 C-172.78189706 57.17816991 -155.71038264 44.0449 -136.6875 33.1875 C-135.75550781 32.65479492 -135.75550781 32.65479492 -134.8046875 32.11132812 C-123.50849307 25.72122598 -111.85038492 20.68710679 -99.6875 16.1875 C-98.58849365 15.77588623 -98.58849365 15.77588623 -97.46728516 15.35595703 C-76.97554537 7.77874614 -55.37974011 3.45416353 -33.6875 1.1875 C-32.85081787 1.09251221 -32.01413574 0.99752441 -31.15209961 0.8996582 C-20.79673882 -0.13762974 -10.39580733 -0.01245147 0 0 Z " fill="#96AF00" transform="translate(1219.6875,153.8125)"/>
</svg>
